<svg width="114" height="114" viewBox="0 0 114 114" fill="none" xmlns="http://www.w3.org/2000/svg">
<path fill-rule="evenodd" clip-rule="evenodd" d="M41 0H19C8.50659 0 0 8.50659 0 19V41H14V19C14 16.2386 16.2386 14 19 14H41V0ZM73 14V0H95C105.493 0 114 8.50659 114 19V41H100V19C100 16.2386 97.7614 14 95 14H73ZM73 100H95C97.7614 100 100 97.7614 100 95V73H114V95C114 105.493 105.493 114 95 114H73V100ZM14 73V95C14 97.7614 16.2386 100 19 100H41V114H19C8.50659 114 0 105.493 0 95V73H14Z" fill="white"/>
</svg>
